<?xml version="1.0" encoding="utf-8"?>
<!-- Generator: Adobe Illustrator 25.2.3, SVG Export Plug-In . SVG Version: 6.00 Build 0)  -->
<svg version="1.1" id="Capa_1" xmlns="http://www.w3.org/2000/svg" xmlns:xlink="http://www.w3.org/1999/xlink" x="0px" y="0px"
	 viewBox="0 0 512 512" style="enable-background:new 0 0 512 512;" xml:space="preserve">
<g>
	<path d="M402.8,106c0-34.8-22.8-90-83.9-90c-25.1,0-46.2,11.8-63,35.2C239.3,27.8,218.2,16,193.1,16c-61.1,0-83.9,55.2-83.9,90
		c0,60,46.8,97.5,110.8,152.2c9.4,8,19.1,16.3,29.5,25.3c1.9,1.6,4.2,2.4,6.6,2.4c2.3,0,4.7-0.8,6.6-2.4c10.4-9,20.1-17.3,29.5-25.3
		C359,201,402.8,164.7,402.8,106L402.8,106z M256,262.8c-8-6.9-15.6-13.4-23-19.8c-66.9-57.2-103.8-88.7-103.8-137
		c0-32.7,21.4-70,63.9-70c22.2,0,39.9,12.7,54.2,38.9c1.8,3.2,5.1,5.2,8.8,5.2c3.7,0,7-2,8.8-5.2c14.3-26.2,32-38.9,54.2-38.9
		c41.9,0,63.9,36.7,63.9,70c0,48.3-36.9,79.8-103.8,137C271.6,249.4,264,255.9,256,262.8L256,262.8z"/>
	<path d="M71.9,408.1l48.1,24.1V486c0,5.5,4.5,10,10,10h106c5.5,0,10-4.5,10-10V355.5c0-30.6-23-56-53.4-59.1l-0.8-0.1
		c-17.6-1.8-48.8-13.8-61.1-26.1l-22.5-22.4C100.7,240.2,90.7,236,80,236v-80c0-22.1-17.9-40-40-40S0,133.9,0,156v135.8
		C0,341.1,27.8,386.1,71.9,408.1L71.9,408.1z M20,156c0-11,9-20,20-20s20,9,20,20v85.4c-12.2,7.1-20,20.2-20,34.6
		c0,10.7,4.2,20.7,11.7,28.3l51.2,51.2c3.9,3.9,10.2,3.9,14.1,0c3.9-3.9,3.9-10.2,0-14.1l-51.2-51.2c-3.8-3.8-5.9-8.8-5.9-14.1
		c0-8.5,5.4-16,13.3-18.9c0,0,0,0,0,0c0,0,0,0,0,0c6.9-2.4,15.1-1,20.8,4.7l22.5,22.4c23.2,23.2,73.8,31.9,73.9,31.9
		c20.2,2,35.5,18.9,35.5,39.2V476h-86v-50c0-3.8-2.1-7.3-5.5-8.9l-53.7-26.8C43.3,371.5,20,333.8,20,291.8L20,156z"/>
	<circle cx="459" cy="384" r="10"/>
	<path d="M472,116c-22.1,0-40,17.9-40,40v80c-10.7,0-20.7,4.2-28.3,11.7l-22.5,22.5c-12.3,12.3-43.5,24.3-61.1,26.1l-0.7,0.1
		c-30.5,3.1-53.5,28.5-53.5,59.1V486c0,5.5,4.5,10,10,10h106c5.5,0,10-4.5,10-10v-53.8l32.7-16.4c4.9-2.5,6.9-8.5,4.5-13.4
		c-2.5-4.9-8.5-6.9-13.4-4.5l-38.3,19.1c-3.4,1.7-5.5,5.2-5.5,8.9v50h-86V355.5c0-20.3,15.2-37.2,35.5-39.2l0.7-0.1
		c21.7-2.2,57.6-16.3,73.2-31.9l22.5-22.5c5.7-5.7,13.9-7.2,20.8-4.7c0,0,0,0,0,0c0,0,0,0,0,0c8,2.8,13.3,10.4,13.3,18.9
		c0,5.3-2.1,10.4-5.9,14.1l-51.2,51.2c-3.9,3.9-3.9,10.2,0,14.1c3.9,3.9,10.2,3.9,14.1,0l51.2-51.2c7.6-7.6,11.7-17.6,11.7-28.3
		c0-14.4-7.8-27.6-20-34.6V156c0-11,9-20,20-20s20,9,20,20v135.8c0,18.3-4.6,36.5-13.4,52.5c-2.6,4.9-0.8,10.9,4,13.6
		c4.9,2.6,10.9,0.8,13.6-4c10.3-19,15.8-40.5,15.8-62.1V156C512,133.9,494.1,116,472,116L472,116z"/>
</g>
</svg>
